<?xml version="1.0" standalone="no"?>
<!DOCTYPE svg PUBLIC "-//W3C//DTD SVG 20010904//EN"
 "http://www.w3.org/TR/2001/REC-SVG-20010904/DTD/svg10.dtd">
<svg version="1.0" xmlns="http://www.w3.org/2000/svg"
 width="100.000000pt" height="100.000000pt" viewBox="0 0 100.000000 100.000000"
 preserveAspectRatio="xMidYMid meet">
<metadata>
Created by potrace 1.14, written by Peter Selinger 2001-2017
</metadata>
<g transform="translate(0.000000,100.000000) scale(0.100000,-0.100000)"
fill="#000000" stroke="none">
<path d="M172 883 c-31 -12 -42 -61 -40 -170 2 -87 -2 -115 -16 -146 -21 -42
-27 -48 -69 -56 -32 -7 -51 -31 -20 -27 25 4 70 -29 90 -67 13 -25 16 -56 15
-150 -2 -113 -1 -119 22 -142 21 -21 35 -25 81 -25 38 0 55 4 55 13 0 8 -16
13 -50 13 -34 0 -56 6 -70 19 -20 18 -21 28 -17 126 5 120 -6 166 -47 204 -22
20 -23 25 -10 36 9 7 25 31 37 53 18 36 21 56 19 157 -2 106 0 118 19 135 12
10 23 18 25 17 12 -8 94 -1 94 7 0 10 -94 13 -118 3z"/>
<path d="M705 880 c3 -5 28 -10 56 -10 36 0 54 -5 70 -21 18 -18 20 -29 15
-122 -5 -115 6 -162 49 -207 26 -27 26 -28 7 -34 -11 -4 -29 -28 -41 -55 -18
-42 -20 -62 -15 -153 6 -130 -4 -149 -82 -153 -68 -4 -66 -4 -58 -16 4 -7 29
-10 66 -7 89 7 98 22 93 162 -6 140 18 201 85 215 39 8 44 25 8 29 -37 4 -75
43 -87 89 -6 21 -9 81 -6 132 6 134 -12 160 -108 161 -36 0 -56 -4 -52 -10z"/>
<path d="M487 718 c-21 -4 -51 -15 -67 -23 -28 -14 -81 -75 -87 -99 -22 -90
-22 -135 -2 -209 35 -131 226 -179 322 -82 17 17 17 18 -21 60 -11 13 -16 13
-38 -2 -33 -21 -93 -24 -120 -6 -75 49 -71 215 7 262 36 22 61 22 104 -1 29
-16 30 -15 52 15 18 24 20 33 11 44 -29 35 -101 54 -161 41z"/>
</g>
</svg>
